<svg xmlns="http://www.w3.org/2000/svg" xmlns:xlink="http://www.w3.org/1999/xlink" xmlns:lucid="lucid" width="1340" height="1901.54"><g transform="translate(0 820)" lucid:page-tab-id="0_0"><path d="M20 567.54a6 6 0 0 1 6-6h348a6 6 0 0 1 6 6v227a6 6 0 0 1-6 6H26a6 6 0 0 1-6-6z" stroke="#5e5e5e" stroke-width="3" fill="#fff"/><path d="M20 607.94h360M20 733.44h360" stroke="#5e5e5e" stroke-width="3" fill="none"/><use xlink:href="#a" transform="matrix(1,0,0,1,28,569.5368780013749) translate(71.10555555555555 20.566666666666666)"/><use xlink:href="#b" transform="matrix(1,0,0,1,32,615.9368780013749) translate(0 30.555555555555568)"/><use xlink:href="#c" transform="matrix(1,0,0,1,32,615.9368780013749) translate(0 59.888888888888886)"/><use xlink:href="#d" transform="matrix(1,0,0,1,32,615.9368780013749) translate(0 89.2222222222222)"/><path d="M480-94a6 6 0 0 1 6-6h348a6 6 0 0 1 6 6V71a6 6 0 0 1-6 6H486a6 6 0 0 1-6-6z" stroke="#5e5e5e" stroke-width="3" fill="#fff"/><path d="M480-54.67h360M480 12.17h360" stroke="#5e5e5e" stroke-width="3" fill="none"/><use xlink:href="#e" transform="matrix(1,0,0,1,488,-92) translate(20.512345679012384 19.888888888888886)"/><use xlink:href="#f" transform="matrix(1,0,0,1,492,20.166666666666636) translate(0 29.62222222222222)"/><use xlink:href="#g" transform="matrix(1,0,0,1,492,20.166666666666636) translate(6.41975308641975 29.62222222222222)"/><path d="M20-433.5a6 6 0 0 1 6-6h348a6 6 0 0 1 6 6v167a6 6 0 0 1-6 6H26a6 6 0 0 1-6-6z" stroke="#5e5e5e" stroke-width="3" fill="#fff"/><path d="M20-394.17h360M20-327.33h360" stroke="#5e5e5e" stroke-width="3" fill="none"/><use xlink:href="#h" transform="matrix(1,0,0,1,28,-431.5) translate(105.38888888888893 19.888888888888886)"/><path d="M480-434.5a6 6 0 0 1 6-6h348a6 6 0 0 1 6 6v168a6 6 0 0 1-6 6H486a6 6 0 0 1-6-6z" stroke="#5e5e5e" stroke-width="3" fill="#fff"/><path d="M480-395.17h360m-360 67.9h360" stroke="#5e5e5e" stroke-width="3" fill="none"/><use xlink:href="#i" transform="matrix(1,0,0,1,488,-432.5) translate(88.17592592592595 19.888888888888886)"/><use xlink:href="#j" transform="matrix(1,0,0,1,492,-387.1666666666667) translate(0 31.066666666666666)"/><path d="M940-468.5a6 6 0 0 1 6-6h348a6 6 0 0 1 6 6v202a6 6 0 0 1-6 6H946a6 6 0 0 1-6-6z" stroke="#5e5e5e" stroke-width="3" fill="#fff"/><path d="M940-429.17h360M940-326.9h360" stroke="#5e5e5e" stroke-width="3" fill="none"/><use xlink:href="#k" transform="matrix(1,0,0,1,948,-466.5) translate(79.55246913580248 19.888888888888886)"/><use xlink:href="#l" transform="matrix(1,0,0,1,952,-421.1666666666667) translate(0 31.376190476190473)"/><use xlink:href="#m" transform="matrix(1,0,0,1,952,-421.1666666666667) translate(0 65.75714285714287)"/><path d="M720-794a6 6 0 0 1 6-6h348a6 6 0 0 1 6 6v167a6 6 0 0 1-6 6H726a6 6 0 0 1-6-6z" stroke="#5e5e5e" stroke-width="3" fill="#fff"/><path d="M720-754.67h360m-360 66.84h360" stroke="#5e5e5e" stroke-width="3" fill="none"/><use xlink:href="#n" transform="matrix(1,0,0,1,728,-792) translate(114.38580246913583 19.888888888888886)"/><path d="M660-442.96v-81.8a6 6 0 0 1 6-6h228a6 6 0 0 0 6-6v-64.27" stroke="#5e5e5e" stroke-width="2" fill="none"/><path d="M661-441.96h-2V-443h2z" stroke="#5e5e5e" stroke-width=".05" fill="#5e5e5e"/><path d="M900-616.3l4.64 14.27h-9.28z" stroke="#5e5e5e" stroke-width="2" fill="#5e5e5e"/><path d="M1120-476.96V-524a6 6 0 0 0-6-6H906a6 6 0 0 1-6-6v-59.05" stroke="#5e5e5e" stroke-width="2" fill="none"/><path d="M1121-475.96h-2V-477h2z" stroke="#5e5e5e" stroke-width=".05" fill="#5e5e5e"/><path d="M900-617.57l12.73 21.52h-25.46z" stroke="#5e5e5e" stroke-width="2" fill="#fff"/><path d="M660-125.95v-54a6 6 0 0 1 6-6h448a6 6 0 0 0 6-6v-66.1" stroke="#5e5e5e" stroke-width="2" fill="none"/><path d="M660-103.43l-12.73-21.52h25.46z" stroke="#5e5e5e" stroke-width="2" fill="#fff"/><path d="M1121-258h-2v-1.04h2z" stroke="#5e5e5e" stroke-width=".05" fill="#5e5e5e"/><path d="M660-258.04v132.1" stroke="#5e5e5e" stroke-width="2" fill="none"/><path d="M661-258h-2v-1.04h2z" stroke="#5e5e5e" stroke-width=".05" fill="#5e5e5e"/><path d="M660-103.43l-12.73-21.52h25.46z" stroke="#5e5e5e" stroke-width="2" fill="#fff"/><path d="M200-258.04v66.1a6 6 0 0 0 6 6h448a6 6 0 0 1 6 6v54" stroke="#5e5e5e" stroke-width="2" fill="none"/><path d="M201-258h-2v-1.04h2z" stroke="#5e5e5e" stroke-width=".05" fill="#5e5e5e"/><path d="M660-103.43l-12.73-21.52h25.46z" stroke="#5e5e5e" stroke-width="2" fill="#fff"/><path d="M480 567.54a6 6 0 0 1 6-6h348a6 6 0 0 1 6 6v227a6 6 0 0 1-6 6H486a6 6 0 0 1-6-6z" stroke="#5e5e5e" stroke-width="3" fill="#fff"/><path d="M480 607.94h360m-360 125.5h360" stroke="#5e5e5e" stroke-width="3" fill="none"/><use xlink:href="#o" transform="matrix(1,0,0,1,488,569.5368780013749) translate(52.105555555555554 20.566666666666666)"/><use xlink:href="#b" transform="matrix(1,0,0,1,492,615.9368780013749) translate(0 30.555555555555568)"/><use xlink:href="#c" transform="matrix(1,0,0,1,492,615.9368780013749) translate(0 59.888888888888886)"/><use xlink:href="#d" transform="matrix(1,0,0,1,492,615.9368780013749) translate(0 89.2222222222222)"/><path d="M960 887.54a6 6 0 0 1 6-6h348a6 6 0 0 1 6 6v168a6 6 0 0 1-6 6H966a6 6 0 0 1-6-6z" stroke="#5e5e5e" stroke-width="3" fill="#fff"/><path d="M960 927.94h360m-360 66.83h360" stroke="#5e5e5e" stroke-width="3" fill="none"/><use xlink:href="#p" transform="matrix(1,0,0,1,968,889.5368780013749) translate(109.93333333333334 20.566666666666666)"/><use xlink:href="#q" transform="matrix(1,0,0,1,972,935.9368780013749) translate(0 30.388888888888886)"/><path d="M960 567.54a6 6 0 0 1 6-6h348a6 6 0 0 1 6 6v197a6 6 0 0 1-6 6H966a6 6 0 0 1-6-6z" stroke="#5e5e5e" stroke-width="3" fill="#fff"/><path d="M960 607.94h360M960 704.1h360" stroke="#5e5e5e" stroke-width="3" fill="none"/><use xlink:href="#r" transform="matrix(1,0,0,1,968,569.5368780013749) translate(56.32777777777778 20.566666666666666)"/><use xlink:href="#s" transform="matrix(1,0,0,1,972,615.9368780013749) translate(0 30.722222222222225)"/><use xlink:href="#t" transform="matrix(1,0,0,1,972,615.9368780013749) translate(0 60.05555555555554)"/><path d="M1140 879.07v-82.6" stroke="#5e5e5e" stroke-width="2" fill="none"/><path d="M1141 880.07h-2v-1.02h2z" stroke="#5e5e5e" stroke-width=".05" fill="#5e5e5e"/><path d="M1140 773.96l12.73 21.52h-25.46z" stroke="#5e5e5e" stroke-width="2" fill="#fff"/><path d="M480 207.54a6 6 0 0 1 6-6h348a6 6 0 0 1 6 6v167a6 6 0 0 1-6 6H486a6 6 0 0 1-6-6z" stroke="#5e5e5e" stroke-width="3" fill="#fff"/><path d="M480 246.87h360M480 313.7h360" stroke="#5e5e5e" stroke-width="3" fill="none"/><use xlink:href="#u" transform="matrix(1,0,0,1,488,209.53687800137493) translate(61.932098765432116 19.888888888888886)"/><path d="M660 79.46v119.6" stroke="#5e5e5e" stroke-width="2" fill="none"/><path d="M661 79.5h-2v-1.04h2zM661 200.07h-2v-1.02h2z" stroke="#5e5e5e" stroke-width=".05" fill="#5e5e5e"/><use xlink:href="#v" transform="matrix(1,0,0,1,625,77.66312199862507) translate(0 14.4)"/><use xlink:href="#w" transform="matrix(1,0,0,1,668,179.27375600274985) translate(0 14.4)"/><path d="M660 383v82.04a6 6 0 0 1-6 6H206a6 6 0 0 0-6 6v82.03" stroke="#5e5e5e" stroke-width="2" fill="none"/><path d="M661 383.03h-2V382h2zM201 560.07h-2v-1.02h2z" stroke="#5e5e5e" stroke-width=".05" fill="#5e5e5e"/><use xlink:href="#v" transform="matrix(1,0,0,1,208,539.2737560027499) translate(0 14.4)"/><path d="M660 383v176.07" stroke="#5e5e5e" stroke-width="2" fill="none"/><path d="M661 383.03h-2V382h2zM661 560.07h-2v-1.02h2z" stroke="#5e5e5e" stroke-width=".05" fill="#5e5e5e"/><g><use xlink:href="#v" transform="matrix(1,0,0,1,668,539.2737560027499) translate(0 14.4)"/></g><path d="M660 383v82.04a6 6 0 0 0 6 6h468a6 6 0 0 1 6 6v82.03" stroke="#5e5e5e" stroke-width="2" fill="none"/><path d="M661 383.03h-2V382h2zM1141 560.07h-2v-1.02h2z" stroke="#5e5e5e" stroke-width=".05" fill="#5e5e5e"/><g><use xlink:href="#w" transform="matrix(1,0,0,1,668,381.6919792149032) translate(0 14.4)"/></g><g><use xlink:href="#v" transform="matrix(1,0,0,1,1148,539.2737560027499) translate(0 14.4)"/></g><defs><path fill="#282c33" d="M30-248c118-7 216 8 213 122C240-48 200 0 122 0H30v-248zM63-27c89 8 146-16 146-99s-60-101-146-95v194" id="x"/><path fill="#282c33" d="M179-190L93 31C79 59 56 82 12 73V49c39 6 53-20 64-50L1-190h34L92-34l54-156h33" id="y"/><path fill="#282c33" d="M117-194c89-4 53 116 60 194h-32v-121c0-31-8-49-39-48C34-167 62-67 57 0H25l-1-190h30c1 10-1 24 2 32 11-22 29-35 61-36" id="z"/><path fill="#282c33" d="M141-36C126-15 110 5 73 4 37 3 15-17 15-53c-1-64 63-63 125-63 3-35-9-54-41-54-24 1-41 7-42 31l-33-3c5-37 33-52 76-52 45 0 72 20 72 64v82c-1 20 7 32 28 27v20c-31 9-61-2-59-35zM48-53c0 20 12 33 32 33 41-3 63-29 60-74-43 2-92-5-92 41" id="A"/><path fill="#282c33" d="M210-169c-67 3-38 105-44 169h-31v-121c0-29-5-50-35-48C34-165 62-65 56 0H25l-1-190h30c1 10-1 24 2 32 10-44 99-50 107 0 11-21 27-35 58-36 85-2 47 119 55 194h-31v-121c0-29-5-49-35-48" id="B"/><path fill="#282c33" d="M24-231v-30h32v30H24zM24 0v-190h32V0H24" id="C"/><path fill="#282c33" d="M96-169c-40 0-48 33-48 73s9 75 48 75c24 0 41-14 43-38l32 2c-6 37-31 61-74 61-59 0-76-41-82-99-10-93 101-131 147-64 4 7 5 14 7 22l-32 3c-4-21-16-35-41-35" id="D"/><path fill="#333" d="M127-220V0H93v-220H8v-28h204v28h-85" id="E"/><path fill="#333" d="M114-163C36-179 61-72 57 0H25l-1-190h30c1 12-1 29 2 39 6-27 23-49 58-41v29" id="F"/><path fill="#333" d="M141-36C126-15 110 5 73 4 37 3 15-17 15-53c-1-64 63-63 125-63 3-35-9-54-41-54-24 1-41 7-42 31l-33-3c5-37 33-52 76-52 45 0 72 20 72 64v82c-1 20 7 32 28 27v20c-31 9-61-2-59-35zM48-53c0 20 12 33 32 33 41-3 63-29 60-74-43 2-92-5-92 41" id="G"/><path fill="#333" d="M117-194c89-4 53 116 60 194h-32v-121c0-31-8-49-39-48C34-167 62-67 57 0H25l-1-190h30c1 10-1 24 2 32 11-22 29-35 61-36" id="H"/><path fill="#333" d="M135-143c-3-34-86-38-87 0 15 53 115 12 119 90S17 21 10-45l28-5c4 36 97 45 98 0-10-56-113-15-118-90-4-57 82-63 122-42 12 7 21 19 24 35" id="I"/><path fill="#333" d="M115-194c55 1 70 41 70 98S169 2 115 4C84 4 66-9 55-30l1 105H24l-1-265h31l2 30c10-21 28-34 59-34zm-8 174c40 0 45-34 45-75s-6-73-45-74c-42 0-51 32-51 76 0 43 10 73 51 73" id="J"/><path fill="#333" d="M100-194c62-1 85 37 85 99 1 63-27 99-86 99S16-35 15-95c0-66 28-99 85-99zM99-20c44 1 53-31 53-75 0-43-8-75-51-75s-53 32-53 75 10 74 51 75" id="K"/><path fill="#333" d="M59-47c-2 24 18 29 38 22v24C64 9 27 4 27-40v-127H5v-23h24l9-43h21v43h35v23H59v120" id="L"/><g id="a"><use transform="matrix(0.07037037037037036,0,0,0.07037037037037036,0,0)" xlink:href="#x"/><use transform="matrix(0.07037037037037036,0,0,0.07037037037037036,18.225925925925925,0)" xlink:href="#y"/><use transform="matrix(0.07037037037037036,0,0,0.07037037037037036,30.89259259259259,0)" xlink:href="#z"/><use transform="matrix(0.07037037037037036,0,0,0.07037037037037036,44.96666666666666,0)" xlink:href="#A"/><use transform="matrix(0.07037037037037036,0,0,0.07037037037037036,59.04074074074073,0)" xlink:href="#B"/><use transform="matrix(0.07037037037037036,0,0,0.07037037037037036,80.08148148148146,0)" xlink:href="#C"/><use transform="matrix(0.07037037037037036,0,0,0.07037037037037036,85.64074074074072,0)" xlink:href="#D"/><use transform="matrix(0.0679012345679012,0,0,0.0679012345679012,98.3074074074074,0)" xlink:href="#E"/><use transform="matrix(0.0679012345679012,0,0,0.0679012345679012,112.29506172839504,0)" xlink:href="#F"/><use transform="matrix(0.0679012345679012,0,0,0.0679012345679012,120.37530864197528,0)" xlink:href="#G"/><use transform="matrix(0.0679012345679012,0,0,0.0679012345679012,133.95555555555552,0)" xlink:href="#H"/><use transform="matrix(0.0679012345679012,0,0,0.0679012345679012,147.53580246913577,0)" xlink:href="#I"/><use transform="matrix(0.0679012345679012,0,0,0.0679012345679012,159.758024691358,0)" xlink:href="#J"/><use transform="matrix(0.0679012345679012,0,0,0.0679012345679012,173.33827160493826,0)" xlink:href="#K"/><use transform="matrix(0.0679012345679012,0,0,0.0679012345679012,186.9185185185185,0)" xlink:href="#F"/><use transform="matrix(0.0679012345679012,0,0,0.0679012345679012,194.9987654320988,0)" xlink:href="#L"/></g><path fill="#333" d="M96-169c-40 0-48 33-48 73s9 75 48 75c24 0 41-14 43-38l32 2c-6 37-31 61-74 61-59 0-76-41-82-99-10-93 101-131 147-64 4 7 5 14 7 22l-32 3c-4-21-16-35-41-35" id="M"/><path fill="#333" d="M185-189c-5-48-123-54-124 2 14 75 158 14 163 119 3 78-121 87-175 55-17-10-28-26-33-46l33-7c5 56 141 63 141-1 0-78-155-14-162-118-5-82 145-84 179-34 5 7 8 16 11 25" id="N"/><path fill="#333" d="M206 0h-36l-40-164L89 0H53L-1-190h32L70-26l43-164h34l41 164 42-164h31" id="O"/><path fill="#333" d="M24-231v-30h32v30H24zM24 0v-190h32V0H24" id="P"/><path fill="#333" d="M210-169c-67 3-38 105-44 169h-31v-121c0-29-5-50-35-48C34-165 62-65 56 0H25l-1-190h30c1 10-1 24 2 32 10-44 99-50 107 0 11-21 27-35 58-36 85-2 47 119 55 194h-31v-121c0-29-5-49-35-48" id="Q"/><g id="b"><use transform="matrix(0.0679012345679012,0,0,0.0679012345679012,0,0)" xlink:href="#M"/><use transform="matrix(0.0679012345679012,0,0,0.0679012345679012,12.222222222222216,0)" xlink:href="#G"/><use transform="matrix(0.0679012345679012,0,0,0.0679012345679012,25.802469135802454,0)" xlink:href="#H"/><use transform="matrix(0.0679012345679012,0,0,0.0679012345679012,39.38271604938269,0)" xlink:href="#N"/><use transform="matrix(0.0679012345679012,0,0,0.0679012345679012,55.679012345678984,0)" xlink:href="#O"/><use transform="matrix(0.0679012345679012,0,0,0.0679012345679012,73.26543209876539,0)" xlink:href="#P"/><use transform="matrix(0.0679012345679012,0,0,0.0679012345679012,78.62962962962958,0)" xlink:href="#Q"/></g><path fill="#333" d="M30-248c118-7 216 8 213 122C240-48 200 0 122 0H30v-248zM63-27c89 8 146-16 146-99s-60-101-146-95v194" id="R"/><path fill="#333" d="M108 0H70L1-190h34L89-25l56-165h34" id="S"/><path fill="#333" d="M100-194c63 0 86 42 84 106H49c0 40 14 67 53 68 26 1 43-12 49-29l28 8c-11 28-37 45-77 45C44 4 14-33 15-96c1-61 26-98 85-98zm52 81c6-60-76-77-97-28-3 7-6 17-6 28h103" id="T"/><g id="c"><use transform="matrix(0.0679012345679012,0,0,0.0679012345679012,0,0)" xlink:href="#M"/><use transform="matrix(0.0679012345679012,0,0,0.0679012345679012,12.222222222222216,0)" xlink:href="#G"/><use transform="matrix(0.0679012345679012,0,0,0.0679012345679012,25.802469135802454,0)" xlink:href="#H"/><use transform="matrix(0.0679012345679012,0,0,0.0679012345679012,39.38271604938269,0)" xlink:href="#R"/><use transform="matrix(0.0679012345679012,0,0,0.0679012345679012,56.969135802469104,0)" xlink:href="#F"/><use transform="matrix(0.0679012345679012,0,0,0.0679012345679012,65.04938271604935,0)" xlink:href="#P"/><use transform="matrix(0.0679012345679012,0,0,0.0679012345679012,70.41358024691355,0)" xlink:href="#S"/><use transform="matrix(0.0679012345679012,0,0,0.0679012345679012,82.63580246913575,0)" xlink:href="#T"/></g><path fill="#333" d="M63-220v92h138v28H63V0H30v-248h175v28H63" id="U"/><path fill="#333" d="M24 0v-261h32V0H24" id="V"/><path fill="#333" d="M179-190L93 31C79 59 56 82 12 73V49c39 6 53-20 64-50L1-190h34L92-34l54-156h33" id="W"/><g id="d"><use transform="matrix(0.0679012345679012,0,0,0.0679012345679012,0,0)" xlink:href="#M"/><use transform="matrix(0.0679012345679012,0,0,0.0679012345679012,12.222222222222216,0)" xlink:href="#G"/><use transform="matrix(0.0679012345679012,0,0,0.0679012345679012,25.802469135802454,0)" xlink:href="#H"/><use transform="matrix(0.0679012345679012,0,0,0.0679012345679012,39.38271604938269,0)" xlink:href="#U"/><use transform="matrix(0.0679012345679012,0,0,0.0679012345679012,54.25308641975306,0)" xlink:href="#V"/><use transform="matrix(0.0679012345679012,0,0,0.0679012345679012,59.61728395061726,0)" xlink:href="#W"/></g><path fill="#333" d="M18-100v-36l175-74v27L42-118l151 64v27" id="X"/><path fill="#333" d="M205 0l-28-72H64L36 0H1l101-248h38L239 0h-34zm-38-99l-47-123c-12 45-31 82-46 123h93" id="Y"/><path fill="#333" d="M115-194c53 0 69 39 70 98 0 66-23 100-70 100C84 3 66-7 56-30L54 0H23l1-261h32v101c10-23 28-34 59-34zm-8 174c40 0 45-34 45-75 0-40-5-75-45-74-42 0-51 32-51 76 0 43 10 73 51 73" id="Z"/><path fill="#333" d="M18-27v-27l151-64-151-65v-27l175 74v36" id="aa"/><g id="e"><use transform="matrix(0.0679012345679012,0,0,0.0679012345679012,0,0)" xlink:href="#E"/><use transform="matrix(0.0679012345679012,0,0,0.0679012345679012,13.987654320987648,0)" xlink:href="#F"/><use transform="matrix(0.0679012345679012,0,0,0.0679012345679012,22.06790123456789,0)" xlink:href="#G"/><use transform="matrix(0.0679012345679012,0,0,0.0679012345679012,35.64814814814813,0)" xlink:href="#H"/><use transform="matrix(0.0679012345679012,0,0,0.0679012345679012,49.22839506172837,0)" xlink:href="#I"/><use transform="matrix(0.0679012345679012,0,0,0.0679012345679012,61.45061728395059,0)" xlink:href="#J"/><use transform="matrix(0.0679012345679012,0,0,0.0679012345679012,75.03086419753083,0)" xlink:href="#K"/><use transform="matrix(0.0679012345679012,0,0,0.0679012345679012,88.61111111111107,0)" xlink:href="#F"/><use transform="matrix(0.0679012345679012,0,0,0.0679012345679012,96.69135802469131,0)" xlink:href="#L"/><use transform="matrix(0.0679012345679012,0,0,0.0679012345679012,103.48148148148144,0)" xlink:href="#E"/><use transform="matrix(0.0679012345679012,0,0,0.0679012345679012,116.99382716049378,0)" xlink:href="#W"/><use transform="matrix(0.0679012345679012,0,0,0.0679012345679012,129.216049382716,0)" xlink:href="#J"/><use transform="matrix(0.0679012345679012,0,0,0.0679012345679012,142.79629629629625,0)" xlink:href="#T"/><use transform="matrix(0.0679012345679012,0,0,0.0679012345679012,156.3765432098765,0)" xlink:href="#X"/><use transform="matrix(0.0679012345679012,0,0,0.0679012345679012,170.63580246913574,0)" xlink:href="#X"/><use transform="matrix(0.0679012345679012,0,0,0.0679012345679012,184.89506172839498,0)" xlink:href="#Y"/><use transform="matrix(0.0679012345679012,0,0,0.0679012345679012,201.19135802469128,0)" xlink:href="#Z"/><use transform="matrix(0.0679012345679012,0,0,0.0679012345679012,214.77160493827154,0)" xlink:href="#I"/><use transform="matrix(0.0679012345679012,0,0,0.0679012345679012,226.99382716049377,0)" xlink:href="#L"/><use transform="matrix(0.0679012345679012,0,0,0.0679012345679012,233.7839506172839,0)" xlink:href="#F"/><use transform="matrix(0.0679012345679012,0,0,0.0679012345679012,241.86419753086415,0)" xlink:href="#G"/><use transform="matrix(0.0679012345679012,0,0,0.0679012345679012,255.4444444444444,0)" xlink:href="#M"/><use transform="matrix(0.0679012345679012,0,0,0.0679012345679012,267.66666666666663,0)" xlink:href="#L"/><use transform="matrix(0.0679012345679012,0,0,0.0679012345679012,274.45679012345676,0)" xlink:href="#aa"/><use transform="matrix(0.0679012345679012,0,0,0.0679012345679012,288.716049382716,0)" xlink:href="#aa"/></g><path fill="#282c33" d="M143 4C61 4 22-44 18-125c-5-107 100-154 193-111 17 8 29 25 37 43l-32 9c-13-25-37-40-76-40-61 0-88 39-88 99 0 61 29 100 91 101 35 0 62-11 79-27v-45h-74v-28h105v86C228-13 192 4 143 4" id="ab"/><path fill="#282c33" d="M100-194c63 0 86 42 84 106H49c0 40 14 67 53 68 26 1 43-12 49-29l28 8c-11 28-37 45-77 45C44 4 14-33 15-96c1-61 26-98 85-98zm52 81c6-60-76-77-97-28-3 7-6 17-6 28h103" id="ac"/><path fill="#282c33" d="M59-47c-2 24 18 29 38 22v24C64 9 27 4 27-40v-127H5v-23h24l9-43h21v43h35v23H59v120" id="ad"/><path fill="#282c33" d="M127-220V0H93v-220H8v-28h204v28h-85" id="ae"/><path fill="#282c33" d="M115-194c55 1 70 41 70 98S169 2 115 4C84 4 66-9 55-30l1 105H24l-1-265h31l2 30c10-21 28-34 59-34zm-8 174c40 0 45-34 45-75s-6-73-45-74c-42 0-51 32-51 76 0 43 10 73 51 73" id="af"/><path fill="#282c33" d="M140-251c81 0 123 46 123 126C263-46 219 4 140 4 59 4 17-45 17-125s42-126 123-126zm0 227c63 0 89-41 89-101s-29-99-89-99c-61 0-89 39-89 99S79-25 140-24" id="ag"/><path fill="#282c33" d="M101-234c-31-9-42 10-38 44h38v23H63V0H32v-167H5v-23h27c-7-52 17-82 69-68v24" id="ah"/><path fill="#282c33" d="M240 0l2-218c-23 76-54 145-80 218h-23L58-218 59 0H30v-248h44l77 211c21-75 51-140 76-211h43V0h-30" id="ai"/><path fill="#282c33" d="M100-194c62-1 85 37 85 99 1 63-27 99-86 99S16-35 15-95c0-66 28-99 85-99zM99-20c44 1 53-31 53-75 0-43-8-75-51-75s-53 32-53 75 10 74 51 75" id="aj"/><path fill="#282c33" d="M108 0H70L1-190h34L89-25l56-165h34" id="ak"/><path fill="#282c33" d="M87 75C49 33 22-17 22-94c0-76 28-126 65-167h31c-38 41-64 92-64 168S80 34 118 75H87" id="al"/><path fill="#282c33" d="M33-261c38 41 65 92 65 168S71 34 33 75H2C39 34 66-17 66-93S39-220 2-261h31" id="am"/><g id="g"><use transform="matrix(0.0641975308641975,0,0,0.0641975308641975,0,0)" xlink:href="#ab"/><use transform="matrix(0.0641975308641975,0,0,0.0641975308641975,17.9753086419753,0)" xlink:href="#ac"/><use transform="matrix(0.0641975308641975,0,0,0.0641975308641975,30.814814814814795,0)" xlink:href="#ad"/><use transform="matrix(0.0641975308641975,0,0,0.0641975308641975,37.23456790123455,0)" xlink:href="#ae"/><use transform="matrix(0.0641975308641975,0,0,0.0641975308641975,50.00987654320985,0)" xlink:href="#y"/><use transform="matrix(0.0641975308641975,0,0,0.0641975308641975,61.5654320987654,0)" xlink:href="#af"/><use transform="matrix(0.0641975308641975,0,0,0.0641975308641975,74.40493827160489,0)" xlink:href="#ac"/><use transform="matrix(0.0641975308641975,0,0,0.0641975308641975,87.24444444444438,0)" xlink:href="#ag"/><use transform="matrix(0.0641975308641975,0,0,0.0641975308641975,105.21975308641969,0)" xlink:href="#ah"/><use transform="matrix(0.0641975308641975,0,0,0.0641975308641975,111.63950617283943,0)" xlink:href="#ai"/><use transform="matrix(0.0641975308641975,0,0,0.0641975308641975,130.8345679012345,0)" xlink:href="#aj"/><use transform="matrix(0.0641975308641975,0,0,0.0641975308641975,143.67407407407399,0)" xlink:href="#ak"/><use transform="matrix(0.0641975308641975,0,0,0.0641975308641975,155.22962962962953,0)" xlink:href="#ac"/><use transform="matrix(0.0641975308641975,0,0,0.0641975308641975,168.06913580246902,0)" xlink:href="#B"/><use transform="matrix(0.0641975308641975,0,0,0.0641975308641975,187.26419753086407,0)" xlink:href="#ac"/><use transform="matrix(0.0641975308641975,0,0,0.0641975308641975,200.10370370370356,0)" xlink:href="#z"/><use transform="matrix(0.0641975308641975,0,0,0.0641975308641975,212.94320987654305,0)" xlink:href="#ad"/><use transform="matrix(0.0641975308641975,0,0,0.0641975308641975,219.3629629629628,0)" xlink:href="#al"/><use transform="matrix(0.0641975308641975,0,0,0.0641975308641975,227.0024691358023,0)" xlink:href="#am"/></g><g id="h"><use transform="matrix(0.0679012345679012,0,0,0.0679012345679012,0,0)" xlink:href="#Y"/><use transform="matrix(0.0679012345679012,0,0,0.0679012345679012,16.29629629629629,0)" xlink:href="#P"/><use transform="matrix(0.0679012345679012,0,0,0.0679012345679012,21.660493827160487,0)" xlink:href="#F"/><use transform="matrix(0.0679012345679012,0,0,0.0679012345679012,29.74074074074073,0)" xlink:href="#E"/><use transform="matrix(0.0679012345679012,0,0,0.0679012345679012,43.72839506172838,0)" xlink:href="#F"/><use transform="matrix(0.0679012345679012,0,0,0.0679012345679012,51.80864197530862,0)" xlink:href="#G"/><use transform="matrix(0.0679012345679012,0,0,0.0679012345679012,65.38888888888886,0)" xlink:href="#H"/><use transform="matrix(0.0679012345679012,0,0,0.0679012345679012,78.9691358024691,0)" xlink:href="#I"/><use transform="matrix(0.0679012345679012,0,0,0.0679012345679012,91.19135802469131,0)" xlink:href="#J"/><use transform="matrix(0.0679012345679012,0,0,0.0679012345679012,104.77160493827155,0)" xlink:href="#K"/><use transform="matrix(0.0679012345679012,0,0,0.0679012345679012,118.35185185185179,0)" xlink:href="#F"/><use transform="matrix(0.0679012345679012,0,0,0.0679012345679012,126.43209876543203,0)" xlink:href="#L"/></g><path fill="#333" d="M266 0h-40l-56-210L115 0H75L2-248h35L96-30l15-64 43-154h32l59 218 59-218h35" id="an"/><g id="i"><use transform="matrix(0.0679012345679012,0,0,0.0679012345679012,0,0)" xlink:href="#an"/><use transform="matrix(0.0679012345679012,0,0,0.0679012345679012,22.135802469135793,0)" xlink:href="#G"/><use transform="matrix(0.0679012345679012,0,0,0.0679012345679012,35.71604938271603,0)" xlink:href="#L"/><use transform="matrix(0.0679012345679012,0,0,0.0679012345679012,42.506172839506156,0)" xlink:href="#T"/><use transform="matrix(0.0679012345679012,0,0,0.0679012345679012,56.086419753086396,0)" xlink:href="#F"/><use transform="matrix(0.0679012345679012,0,0,0.0679012345679012,64.16666666666664,0)" xlink:href="#E"/><use transform="matrix(0.0679012345679012,0,0,0.0679012345679012,78.15432098765429,0)" xlink:href="#F"/><use transform="matrix(0.0679012345679012,0,0,0.0679012345679012,86.23456790123453,0)" xlink:href="#G"/><use transform="matrix(0.0679012345679012,0,0,0.0679012345679012,99.81481481481477,0)" xlink:href="#H"/><use transform="matrix(0.0679012345679012,0,0,0.0679012345679012,113.395061728395,0)" xlink:href="#I"/><use transform="matrix(0.0679012345679012,0,0,0.0679012345679012,125.61728395061722,0)" xlink:href="#J"/><use transform="matrix(0.0679012345679012,0,0,0.0679012345679012,139.19753086419746,0)" xlink:href="#K"/><use transform="matrix(0.0679012345679012,0,0,0.0679012345679012,152.77777777777771,0)" xlink:href="#F"/><use transform="matrix(0.0679012345679012,0,0,0.0679012345679012,160.85802469135797,0)" xlink:href="#L"/></g><path fill="#282c33" d="M137 0h-34L2-248h35l83 218 83-218h36" id="ao"/><path fill="#282c33" d="M135-143c-3-34-86-38-87 0 15 53 115 12 119 90S17 21 10-45l28-5c4 36 97 45 98 0-10-56-113-15-118-90-4-57 82-63 122-42 12 7 21 19 24 35" id="ap"/><path fill="#282c33" d="M24 0v-261h32V0H24" id="aq"/><g id="j"><use transform="matrix(0.07037037037037036,0,0,0.07037037037037036,0,0)" xlink:href="#ao"/><use transform="matrix(0.07037037037037036,0,0,0.07037037037037036,15.48148148148148,0)" xlink:href="#ac"/><use transform="matrix(0.07037037037037036,0,0,0.07037037037037036,29.55555555555555,0)" xlink:href="#ap"/><use transform="matrix(0.07037037037037036,0,0,0.07037037037037036,42.222222222222214,0)" xlink:href="#ap"/><use transform="matrix(0.07037037037037036,0,0,0.07037037037037036,54.88888888888888,0)" xlink:href="#ac"/><use transform="matrix(0.07037037037037036,0,0,0.07037037037037036,68.96296296296295,0)" xlink:href="#aq"/><use transform="matrix(0.07037037037037036,0,0,0.07037037037037036,74.52222222222221,0)" xlink:href="#x"/><use transform="matrix(0.07037037037037036,0,0,0.07037037037037036,92.74814814814813,0)" xlink:href="#C"/><use transform="matrix(0.07037037037037036,0,0,0.07037037037037036,98.3074074074074,0)" xlink:href="#ap"/><use transform="matrix(0.07037037037037036,0,0,0.07037037037037036,110.97407407407405,0)" xlink:href="#af"/><use transform="matrix(0.07037037037037036,0,0,0.07037037037037036,125.04814814814813,0)" xlink:href="#aq"/><use transform="matrix(0.07037037037037036,0,0,0.07037037037037036,130.60740740740738,0)" xlink:href="#A"/><use transform="matrix(0.07037037037037036,0,0,0.07037037037037036,144.68148148148146,0)" xlink:href="#D"/><use transform="matrix(0.07037037037037036,0,0,0.07037037037037036,157.34814814814814,0)" xlink:href="#ac"/><use transform="matrix(0.07037037037037036,0,0,0.07037037037037036,171.4222222222222,0)" xlink:href="#B"/><use transform="matrix(0.07037037037037036,0,0,0.07037037037037036,192.46296296296293,0)" xlink:href="#ac"/><use transform="matrix(0.07037037037037036,0,0,0.07037037037037036,206.537037037037,0)" xlink:href="#z"/><use transform="matrix(0.07037037037037036,0,0,0.07037037037037036,220.6111111111111,0)" xlink:href="#ad"/></g><path fill="#333" d="M143 4C61 4 22-44 18-125c-5-107 100-154 193-111 17 8 29 25 37 43l-32 9c-13-25-37-40-76-40-61 0-88 39-88 99 0 61 29 100 91 101 35 0 62-11 79-27v-45h-74v-28h105v86C228-13 192 4 143 4" id="ar"/><path fill="#333" d="M84 4C-5 8 30-112 23-190h32v120c0 31 7 50 39 49 72-2 45-101 50-169h31l1 190h-30c-1-10 1-25-2-33-11 22-28 36-60 37" id="as"/><path fill="#333" d="M85-194c31 0 48 13 60 33l-1-100h32l1 261h-30c-2-10 0-23-3-31C134-8 116 4 85 4 32 4 16-35 15-94c0-66 23-100 70-100zm9 24c-40 0-46 34-46 75 0 40 6 74 45 74 42 0 51-32 51-76 0-42-9-74-50-73" id="at"/><g id="k"><use transform="matrix(0.0679012345679012,0,0,0.0679012345679012,0,0)" xlink:href="#ar"/><use transform="matrix(0.0679012345679012,0,0,0.0679012345679012,19.012345679012338,0)" xlink:href="#F"/><use transform="matrix(0.0679012345679012,0,0,0.0679012345679012,27.09259259259258,0)" xlink:href="#K"/><use transform="matrix(0.0679012345679012,0,0,0.0679012345679012,40.67283950617282,0)" xlink:href="#as"/><use transform="matrix(0.0679012345679012,0,0,0.0679012345679012,54.25308641975306,0)" xlink:href="#H"/><use transform="matrix(0.0679012345679012,0,0,0.0679012345679012,67.8333333333333,0)" xlink:href="#at"/><use transform="matrix(0.0679012345679012,0,0,0.0679012345679012,81.41358024691354,0)" xlink:href="#E"/><use transform="matrix(0.0679012345679012,0,0,0.0679012345679012,95.40123456790118,0)" xlink:href="#F"/><use transform="matrix(0.0679012345679012,0,0,0.0679012345679012,103.48148148148142,0)" xlink:href="#G"/><use transform="matrix(0.0679012345679012,0,0,0.0679012345679012,117.06172839506166,0)" xlink:href="#H"/><use transform="matrix(0.0679012345679012,0,0,0.0679012345679012,130.64197530864192,0)" xlink:href="#I"/><use transform="matrix(0.0679012345679012,0,0,0.0679012345679012,142.86419753086412,0)" xlink:href="#J"/><use transform="matrix(0.0679012345679012,0,0,0.0679012345679012,156.4444444444444,0)" xlink:href="#K"/><use transform="matrix(0.0679012345679012,0,0,0.0679012345679012,170.02469135802465,0)" xlink:href="#F"/><use transform="matrix(0.0679012345679012,0,0,0.0679012345679012,178.1049382716049,0)" xlink:href="#L"/></g><path fill="#282c33" d="M185-189c-5-48-123-54-124 2 14 75 158 14 163 119 3 78-121 87-175 55-17-10-28-26-33-46l33-7c5 56 141 63 141-1 0-78-155-14-162-118-5-82 145-84 179-34 5 7 8 16 11 25" id="au"/><path fill="#282c33" d="M84 4C-5 8 30-112 23-190h32v120c0 31 7 50 39 49 72-2 45-101 50-169h31l1 190h-30c-1-10 1-25-2-33-11 22-28 36-60 37" id="av"/><path fill="#282c33" d="M114-163C36-179 61-72 57 0H25l-1-190h30c1 12-1 29 2 39 6-27 23-49 58-41v29" id="aw"/><path fill="#282c33" d="M212-179c-10-28-35-45-73-45-59 0-87 40-87 99 0 60 29 101 89 101 43 0 62-24 78-52l27 14C228-24 195 4 139 4 59 4 22-46 18-125c-6-104 99-153 187-111 19 9 31 26 39 46" id="ax"/><g id="l"><use transform="matrix(0.07037037037037036,0,0,0.07037037037037036,0,0)" xlink:href="#au"/><use transform="matrix(0.07037037037037036,0,0,0.07037037037037036,16.888888888888886,0)" xlink:href="#av"/><use transform="matrix(0.07037037037037036,0,0,0.07037037037037036,30.96296296296296,0)" xlink:href="#aw"/><use transform="matrix(0.07037037037037036,0,0,0.07037037037037036,39.337037037037035,0)" xlink:href="#ah"/><use transform="matrix(0.07037037037037036,0,0,0.07037037037037036,46.37407407407407,0)" xlink:href="#A"/><use transform="matrix(0.07037037037037036,0,0,0.07037037037037036,60.44814814814815,0)" xlink:href="#D"/><use transform="matrix(0.07037037037037036,0,0,0.07037037037037036,73.11481481481482,0)" xlink:href="#ac"/><use transform="matrix(0.07037037037037036,0,0,0.07037037037037036,87.1888888888889,0)" xlink:href="#ax"/><use transform="matrix(0.07037037037037036,0,0,0.07037037037037036,105.41481481481482,0)" xlink:href="#aj"/><use transform="matrix(0.07037037037037036,0,0,0.07037037037037036,119.4888888888889,0)" xlink:href="#z"/><use transform="matrix(0.07037037037037036,0,0,0.07037037037037036,133.56296296296296,0)" xlink:href="#ad"/><use transform="matrix(0.07037037037037036,0,0,0.07037037037037036,140.6,0)" xlink:href="#A"/><use transform="matrix(0.07037037037037036,0,0,0.07037037037037036,154.6740740740741,0)" xlink:href="#D"/><use transform="matrix(0.07037037037037036,0,0,0.07037037037037036,167.34074074074073,0)" xlink:href="#ad"/></g><g id="m"><use transform="matrix(0.07037037037037036,0,0,0.07037037037037036,0,0)" xlink:href="#ae"/><use transform="matrix(0.07037037037037036,0,0,0.07037037037037036,14.003703703703703,0)" xlink:href="#y"/><use transform="matrix(0.07037037037037036,0,0,0.07037037037037036,26.670370370370367,0)" xlink:href="#af"/><use transform="matrix(0.07037037037037036,0,0,0.07037037037037036,40.74444444444444,0)" xlink:href="#ac"/><use transform="matrix(0.07037037037037036,0,0,0.07037037037037036,54.818518518518516,0)" xlink:href="#ag"/><use transform="matrix(0.07037037037037036,0,0,0.07037037037037036,74.52222222222221,0)" xlink:href="#ah"/><use transform="matrix(0.07037037037037036,0,0,0.07037037037037036,81.55925925925925,0)" xlink:href="#ax"/><use transform="matrix(0.07037037037037036,0,0,0.07037037037037036,99.78518518518517,0)" xlink:href="#aj"/><use transform="matrix(0.07037037037037036,0,0,0.07037037037037036,113.85925925925925,0)" xlink:href="#z"/><use transform="matrix(0.07037037037037036,0,0,0.07037037037037036,127.93333333333332,0)" xlink:href="#ad"/><use transform="matrix(0.07037037037037036,0,0,0.07037037037037036,134.97037037037035,0)" xlink:href="#A"/><use transform="matrix(0.07037037037037036,0,0,0.07037037037037036,149.04444444444442,0)" xlink:href="#D"/><use transform="matrix(0.07037037037037036,0,0,0.07037037037037036,161.71111111111108,0)" xlink:href="#ad"/></g><path fill="#333" d="M106-169C34-169 62-67 57 0H25v-261h32l-1 103c12-21 28-36 61-36 89 0 53 116 60 194h-32v-121c2-32-8-49-39-48" id="ay"/><g id="n"><use transform="matrix(0.0679012345679012,0,0,0.0679012345679012,0,0)" xlink:href="#Y"/><use transform="matrix(0.0679012345679012,0,0,0.0679012345679012,16.29629629629629,0)" xlink:href="#Q"/><use transform="matrix(0.0679012345679012,0,0,0.0679012345679012,36.59876543209875,0)" xlink:href="#J"/><use transform="matrix(0.0679012345679012,0,0,0.0679012345679012,50.17901234567899,0)" xlink:href="#ay"/><use transform="matrix(0.0679012345679012,0,0,0.0679012345679012,63.75925925925923,0)" xlink:href="#P"/><use transform="matrix(0.0679012345679012,0,0,0.0679012345679012,69.12345679012343,0)" xlink:href="#Z"/><use transform="matrix(0.0679012345679012,0,0,0.0679012345679012,82.70370370370367,0)" xlink:href="#P"/><use transform="matrix(0.0679012345679012,0,0,0.0679012345679012,88.06790123456786,0)" xlink:href="#G"/><use transform="matrix(0.0679012345679012,0,0,0.0679012345679012,101.6481481481481,0)" xlink:href="#H"/></g><path fill="#282c33" d="M177-190C167-65 218 103 67 71c-23-6-38-20-44-43l32-5c15 47 100 32 89-28v-30C133-14 115 1 83 1 29 1 15-40 15-95c0-56 16-97 71-98 29-1 48 16 59 35 1-10 0-23 2-32h30zM94-22c36 0 50-32 50-73 0-42-14-75-50-75-39 0-46 34-46 75s6 73 46 73" id="az"/><g id="o"><use transform="matrix(0.07037037037037036,0,0,0.07037037037037036,0,0)" xlink:href="#ag"/><use transform="matrix(0.07037037037037036,0,0,0.07037037037037036,19.703703703703702,0)" xlink:href="#ak"/><use transform="matrix(0.07037037037037036,0,0,0.07037037037037036,32.37037037037037,0)" xlink:href="#ac"/><use transform="matrix(0.07037037037037036,0,0,0.07037037037037036,46.44444444444444,0)" xlink:href="#aw"/><use transform="matrix(0.07037037037037036,0,0,0.07037037037037036,54.818518518518516,0)" xlink:href="#aq"/><use transform="matrix(0.07037037037037036,0,0,0.07037037037037036,60.37777777777777,0)" xlink:href="#A"/><use transform="matrix(0.07037037037037036,0,0,0.07037037037037036,74.45185185185184,0)" xlink:href="#af"/><use transform="matrix(0.07037037037037036,0,0,0.07037037037037036,88.52592592592592,0)" xlink:href="#af"/><use transform="matrix(0.07037037037037036,0,0,0.07037037037037036,102.60000000000001,0)" xlink:href="#C"/><use transform="matrix(0.07037037037037036,0,0,0.07037037037037036,108.15925925925926,0)" xlink:href="#z"/><use transform="matrix(0.07037037037037036,0,0,0.07037037037037036,122.23333333333333,0)" xlink:href="#az"/><use transform="matrix(0.0679012345679012,0,0,0.0679012345679012,136.3074074074074,0)" xlink:href="#E"/><use transform="matrix(0.0679012345679012,0,0,0.0679012345679012,150.29506172839504,0)" xlink:href="#F"/><use transform="matrix(0.0679012345679012,0,0,0.0679012345679012,158.3753086419753,0)" xlink:href="#G"/><use transform="matrix(0.0679012345679012,0,0,0.0679012345679012,171.95555555555552,0)" xlink:href="#H"/><use transform="matrix(0.0679012345679012,0,0,0.0679012345679012,185.53580246913577,0)" xlink:href="#I"/><use transform="matrix(0.0679012345679012,0,0,0.0679012345679012,197.758024691358,0)" xlink:href="#J"/><use transform="matrix(0.0679012345679012,0,0,0.0679012345679012,211.33827160493826,0)" xlink:href="#K"/><use transform="matrix(0.0679012345679012,0,0,0.0679012345679012,224.9185185185185,0)" xlink:href="#F"/><use transform="matrix(0.0679012345679012,0,0,0.0679012345679012,232.99876543209876,0)" xlink:href="#L"/></g><path fill="#282c33" d="M160-131c35 5 61 23 61 61C221 17 115-2 30 0v-248c76 3 177-17 177 60 0 33-19 50-47 57zm-97-11c50-1 110 9 110-42 0-47-63-36-110-37v79zm0 115c55-2 124 14 124-45 0-56-70-42-124-44v89" id="aA"/><g id="p"><use transform="matrix(0.07037037037037036,0,0,0.07037037037037036,0,0)" xlink:href="#ae"/><use transform="matrix(0.07037037037037036,0,0,0.07037037037037036,14.496296296296295,0)" xlink:href="#aw"/><use transform="matrix(0.07037037037037036,0,0,0.07037037037037036,22.870370370370367,0)" xlink:href="#A"/><use transform="matrix(0.07037037037037036,0,0,0.07037037037037036,36.94444444444444,0)" xlink:href="#z"/><use transform="matrix(0.07037037037037036,0,0,0.07037037037037036,51.01851851851852,0)" xlink:href="#ap"/><use transform="matrix(0.07037037037037036,0,0,0.07037037037037036,63.68518518518518,0)" xlink:href="#af"/><use transform="matrix(0.07037037037037036,0,0,0.07037037037037036,77.75925925925925,0)" xlink:href="#aj"/><use transform="matrix(0.07037037037037036,0,0,0.07037037037037036,91.83333333333331,0)" xlink:href="#aw"/><use transform="matrix(0.07037037037037036,0,0,0.07037037037037036,100.20740740740739,0)" xlink:href="#ad"/><use transform="matrix(0.07037037037037036,0,0,0.07037037037037036,107.24444444444444,0)" xlink:href="#aA"/></g><path fill="#333" d="M190 0L58-211 59 0H30v-248h39L202-35l-2-213h31V0h-41" id="aB"/><g id="q"><use transform="matrix(0.0679012345679012,0,0,0.0679012345679012,0,0)" xlink:href="#aB"/><use transform="matrix(0.0679012345679012,0,0,0.0679012345679012,17.58641975308641,0)" xlink:href="#G"/><use transform="matrix(0.0679012345679012,0,0,0.0679012345679012,31.16666666666665,0)" xlink:href="#Q"/><use transform="matrix(0.0679012345679012,0,0,0.0679012345679012,51.46913580246911,0)" xlink:href="#T"/></g><g id="r"><use transform="matrix(0.07037037037037036,0,0,0.07037037037037036,0,0)" xlink:href="#ai"/><use transform="matrix(0.07037037037037036,0,0,0.07037037037037036,21.040740740740738,0)" xlink:href="#av"/><use transform="matrix(0.07037037037037036,0,0,0.07037037037037036,35.11481481481481,0)" xlink:href="#aq"/><use transform="matrix(0.07037037037037036,0,0,0.07037037037037036,40.67407407407406,0)" xlink:href="#ad"/><use transform="matrix(0.07037037037037036,0,0,0.07037037037037036,47.7111111111111,0)" xlink:href="#C"/><use transform="matrix(0.07037037037037036,0,0,0.07037037037037036,53.27037037037036,0)" xlink:href="#A"/><use transform="matrix(0.07037037037037036,0,0,0.07037037037037036,67.34444444444443,0)" xlink:href="#ap"/><use transform="matrix(0.07037037037037036,0,0,0.07037037037037036,80.01111111111108,0)" xlink:href="#af"/><use transform="matrix(0.07037037037037036,0,0,0.07037037037037036,94.08518518518517,0)" xlink:href="#ac"/><use transform="matrix(0.07037037037037036,0,0,0.07037037037037036,108.15925925925924,0)" xlink:href="#D"/><use transform="matrix(0.07037037037037036,0,0,0.07037037037037036,120.82592592592589,0)" xlink:href="#ad"/><use transform="matrix(0.0679012345679012,0,0,0.0679012345679012,127.86296296296294,0)" xlink:href="#E"/><use transform="matrix(0.0679012345679012,0,0,0.0679012345679012,141.85061728395058,0)" xlink:href="#F"/><use transform="matrix(0.0679012345679012,0,0,0.0679012345679012,149.93086419753087,0)" xlink:href="#G"/><use transform="matrix(0.0679012345679012,0,0,0.0679012345679012,163.51111111111106,0)" xlink:href="#H"/><use transform="matrix(0.0679012345679012,0,0,0.0679012345679012,177.0913580246913,0)" xlink:href="#I"/><use transform="matrix(0.0679012345679012,0,0,0.0679012345679012,189.31358024691355,0)" xlink:href="#J"/><use transform="matrix(0.0679012345679012,0,0,0.0679012345679012,202.8938271604938,0)" xlink:href="#K"/><use transform="matrix(0.0679012345679012,0,0,0.0679012345679012,216.47407407407405,0)" xlink:href="#F"/><use transform="matrix(0.0679012345679012,0,0,0.0679012345679012,224.5543209876543,0)" xlink:href="#L"/></g><path fill="#333" d="M30-248c87 1 191-15 191 75 0 78-77 80-158 76V0H30v-248zm33 125c57 0 124 11 124-50 0-59-68-47-124-48v98" id="aC"/><g id="s"><use transform="matrix(0.0679012345679012,0,0,0.0679012345679012,0,0)" xlink:href="#aC"/><use transform="matrix(0.0679012345679012,0,0,0.0679012345679012,16.29629629629629,0)" xlink:href="#K"/><use transform="matrix(0.0679012345679012,0,0,0.0679012345679012,29.87654320987653,0)" xlink:href="#O"/><use transform="matrix(0.0679012345679012,0,0,0.0679012345679012,47.46296296296294,0)" xlink:href="#T"/><use transform="matrix(0.0679012345679012,0,0,0.0679012345679012,61.04320987654318,0)" xlink:href="#F"/></g><g id="t"><use transform="matrix(0.0679012345679012,0,0,0.0679012345679012,0,0)" xlink:href="#U"/><use transform="matrix(0.0679012345679012,0,0,0.0679012345679012,14.870370370370363,0)" xlink:href="#as"/><use transform="matrix(0.0679012345679012,0,0,0.0679012345679012,28.450617283950603,0)" xlink:href="#T"/><use transform="matrix(0.0679012345679012,0,0,0.0679012345679012,42.030864197530846,0)" xlink:href="#V"/></g><path fill="#333" d="M30 0v-248h187v28H63v79h144v27H63v87h162V0H30" id="aD"/><g id="u"><use transform="matrix(0.0679012345679012,0,0,0.0679012345679012,0,0)" xlink:href="#E"/><use transform="matrix(0.0679012345679012,0,0,0.0679012345679012,13.987654320987648,0)" xlink:href="#F"/><use transform="matrix(0.0679012345679012,0,0,0.0679012345679012,22.06790123456789,0)" xlink:href="#G"/><use transform="matrix(0.0679012345679012,0,0,0.0679012345679012,35.64814814814813,0)" xlink:href="#H"/><use transform="matrix(0.0679012345679012,0,0,0.0679012345679012,49.22839506172837,0)" xlink:href="#I"/><use transform="matrix(0.0679012345679012,0,0,0.0679012345679012,61.45061728395059,0)" xlink:href="#J"/><use transform="matrix(0.0679012345679012,0,0,0.0679012345679012,75.03086419753083,0)" xlink:href="#K"/><use transform="matrix(0.0679012345679012,0,0,0.0679012345679012,88.61111111111107,0)" xlink:href="#F"/><use transform="matrix(0.0679012345679012,0,0,0.0679012345679012,96.69135802469131,0)" xlink:href="#L"/><use transform="matrix(0.0679012345679012,0,0,0.0679012345679012,103.48148148148144,0)" xlink:href="#E"/><use transform="matrix(0.0679012345679012,0,0,0.0679012345679012,116.99382716049378,0)" xlink:href="#W"/><use transform="matrix(0.0679012345679012,0,0,0.0679012345679012,129.216049382716,0)" xlink:href="#J"/><use transform="matrix(0.0679012345679012,0,0,0.0679012345679012,142.79629629629625,0)" xlink:href="#T"/><use transform="matrix(0.0679012345679012,0,0,0.0679012345679012,156.3765432098765,0)" xlink:href="#aD"/><use transform="matrix(0.0679012345679012,0,0,0.0679012345679012,172.67283950617283,0)" xlink:href="#H"/><use transform="matrix(0.0679012345679012,0,0,0.0679012345679012,186.25308641975306,0)" xlink:href="#as"/><use transform="matrix(0.0679012345679012,0,0,0.0679012345679012,199.83333333333331,0)" xlink:href="#Q"/></g><path d="M101-251c68 0 85 55 85 127S166 4 100 4C33 4 14-52 14-124c0-73 17-127 87-127zm-1 229c47 0 54-49 54-102s-4-102-53-102c-51 0-55 48-55 102 0 53 5 102 54 102" id="aE"/><path d="M33 0v-38h34V0H33" id="aF"/><path d="M80-196l47-18 7 23-49 13 32 44-20 13-27-46-27 45-21-12 33-44-49-13 8-23 47 19-2-53h23" id="aG"/><g id="v"><use transform="matrix(0.05,0,0,0.05,0,0)" xlink:href="#aE"/><use transform="matrix(0.05,0,0,0.05,10,0)" xlink:href="#aF"/><use transform="matrix(0.05,0,0,0.05,15,0)" xlink:href="#aF"/><use transform="matrix(0.05,0,0,0.05,20,0)" xlink:href="#aG"/></g><path d="M27 0v-27h64v-190l-56 39v-29l58-41h29v221h61V0H27" id="aH"/><use transform="matrix(0.05,0,0,0.05,0,0)" xlink:href="#aH" id="w"/></defs></g></svg>